G04*
G04 #@! TF.GenerationSoftware,Altium Limited,Altium Designer,20.0.13 (296)*
G04*
G04 Layer_Color=8421504*
%FSLAX44Y44*%
%MOMM*%
G71*
G01*
G75*
%ADD17O,1.5000X0.6000*%
%ADD18R,2.0000X1.2000*%
%ADD19R,0.8000X0.9000*%
%ADD20R,0.7800X0.9800*%
%ADD21R,0.6000X0.9000*%
%ADD22R,0.9800X0.7800*%
%ADD23R,0.9000X0.6000*%
D17*
X1061720Y614680D02*
D03*
Y627380D02*
D03*
Y640080D02*
D03*
Y652780D02*
D03*
Y665480D02*
D03*
Y678180D02*
D03*
Y690880D02*
D03*
Y703580D02*
D03*
X1007720Y614680D02*
D03*
Y627380D02*
D03*
Y640080D02*
D03*
Y652780D02*
D03*
Y665480D02*
D03*
Y678180D02*
D03*
Y690880D02*
D03*
Y703580D02*
D03*
D18*
X981040Y632060D02*
D03*
Y657460D02*
D03*
Y677860D02*
D03*
Y703260D02*
D03*
D19*
X995830Y720092D02*
D03*
X982830D02*
D03*
D20*
X1023480Y720090D02*
D03*
X1008380D02*
D03*
D21*
X1050169Y720088D02*
D03*
X1035170D02*
D03*
D22*
X1083310Y636270D02*
D03*
Y621170D02*
D03*
Y697370D02*
D03*
Y712470D02*
D03*
D23*
X1083308Y673221D02*
D03*
Y688220D02*
D03*
X1083312Y660279D02*
D03*
Y645280D02*
D03*
M02*
