G04*
G04 #@! TF.GenerationSoftware,Altium Limited,Altium Designer,20.0.13 (296)*
G04*
G04 Layer_Color=8388736*
%FSLAX44Y44*%
%MOMM*%
G71*
G01*
G75*
%ADD24O,1.7032X0.8032*%
%ADD25R,2.2032X1.4032*%
%ADD26R,1.0032X1.1032*%
%ADD27R,0.9832X1.1832*%
%ADD28R,0.8032X1.1032*%
%ADD29R,1.1832X0.9832*%
%ADD30R,1.1032X0.8032*%
%ADD31C,1.7032*%
%ADD32O,4.2032X1.8032*%
%ADD33C,0.2032*%
%ADD34C,1.0032*%
%ADD35C,0.8032*%
D24*
X1061720Y614680D02*
D03*
Y627380D02*
D03*
Y640080D02*
D03*
Y652780D02*
D03*
Y665480D02*
D03*
Y678180D02*
D03*
Y690880D02*
D03*
Y703580D02*
D03*
X1007720Y614680D02*
D03*
Y627380D02*
D03*
Y640080D02*
D03*
Y652780D02*
D03*
Y665480D02*
D03*
Y678180D02*
D03*
Y690880D02*
D03*
Y703580D02*
D03*
D25*
X981040Y632060D02*
D03*
Y657460D02*
D03*
Y677860D02*
D03*
Y703260D02*
D03*
D26*
X995830Y720092D02*
D03*
X982830D02*
D03*
D27*
X1023480Y720090D02*
D03*
X1008380D02*
D03*
D28*
X1050169Y720088D02*
D03*
X1035170D02*
D03*
D29*
X1083310Y636270D02*
D03*
Y621170D02*
D03*
Y697370D02*
D03*
Y712470D02*
D03*
D30*
X1083308Y673221D02*
D03*
Y688220D02*
D03*
X1083312Y660279D02*
D03*
Y645280D02*
D03*
D31*
X1103630Y693420D02*
D03*
Y642620D02*
D03*
Y617220D02*
D03*
Y668020D02*
D03*
Y718820D02*
D03*
D32*
X955040Y609160D02*
D03*
Y726160D02*
D03*
D33*
Y645160D02*
D03*
Y690160D02*
D03*
D34*
X984150Y645620D02*
D03*
X984220Y689610D02*
D03*
D35*
X1036180Y612140D02*
D03*
X1054043Y702408D02*
D03*
X1025242Y667603D02*
D03*
X1029004Y659563D02*
D03*
M02*
