G04*
G04 #@! TF.GenerationSoftware,Altium Limited,Altium Designer,20.0.13 (296)*
G04*
G04 Layer_Physical_Order=1*
G04 Layer_Color=255*
%FSLAX44Y44*%
%MOMM*%
G71*
G01*
G75*
%ADD13C,0.2540*%
%ADD17O,1.5000X0.6000*%
%ADD18R,2.0000X1.2000*%
%ADD19R,0.8000X0.9000*%
%ADD20R,0.7800X0.9800*%
%ADD21R,0.6000X0.9000*%
%ADD22R,0.9800X0.7800*%
%ADD23R,0.9000X0.6000*%
%ADD36C,0.3810*%
%ADD37C,1.5000*%
%ADD38O,4.0000X1.6000*%
%ADD39C,0.8000*%
%ADD40C,0.6000*%
D13*
X1039348Y622922D02*
X1054399Y607870D01*
X1039348Y622922D02*
Y663128D01*
X1054399Y607870D02*
X1069041D01*
X1024296Y678180D02*
X1039348Y663128D01*
X1092320Y682110D02*
X1103630Y693420D01*
X1084310Y621170D02*
X1092320Y629180D01*
X1083310Y621170D02*
X1084310D01*
X1092320Y629180D02*
Y682110D01*
X1069041Y607870D02*
X1074360Y613190D01*
Y613220D01*
X1007720Y678180D02*
X1024296D01*
X1074360Y613220D02*
X1082310Y621170D01*
X1083310D01*
X995680Y675191D02*
X1002801Y668070D01*
X995680Y719942D02*
X995830Y720092D01*
X995680Y675191D02*
Y719942D01*
X1007720Y690880D02*
X1008139Y691299D01*
X1042724Y726430D02*
X1045328Y729033D01*
X1020167Y691299D02*
X1042724Y713856D01*
X1008139Y691299D02*
X1020167D01*
X1055010Y729033D02*
X1071573Y712470D01*
X1042724Y713856D02*
Y726430D01*
X1071573Y712470D02*
X1083310D01*
X1045328Y729033D02*
X1055010D01*
X1083310Y712470D02*
X1085305Y714465D01*
X1091167D01*
X1095522Y718820D01*
X1098550D01*
X1011692Y652780D02*
X1024823Y665911D01*
Y667184D01*
X1025242Y667603D01*
X1029004Y659065D02*
Y659563D01*
X1003220Y652780D02*
X1011692D01*
X1002801Y666492D02*
Y668070D01*
X1003813Y665480D02*
X1007720D01*
X989135Y672756D02*
X995775Y666116D01*
Y660225D02*
Y666116D01*
X989135Y672756D02*
Y673765D01*
X1002801Y666492D02*
X1003813Y665480D01*
X985040Y677860D02*
X989135Y673765D01*
X1012639Y640499D02*
X1028585Y656445D01*
Y658646D01*
X1029004Y659065D01*
X976040Y677860D02*
X985040D01*
X995775Y660225D02*
X1003220Y652780D01*
X976040Y657460D02*
X985040D01*
X1002001Y640499D01*
X1012639D01*
D17*
X1061720Y614680D02*
D03*
Y627380D02*
D03*
Y640080D02*
D03*
Y652780D02*
D03*
Y665480D02*
D03*
Y678180D02*
D03*
Y690880D02*
D03*
Y703580D02*
D03*
X1007720Y614680D02*
D03*
Y627380D02*
D03*
Y640080D02*
D03*
Y652780D02*
D03*
Y665480D02*
D03*
Y678180D02*
D03*
Y690880D02*
D03*
Y703580D02*
D03*
D18*
X981040Y632060D02*
D03*
Y657460D02*
D03*
Y677860D02*
D03*
Y703260D02*
D03*
D19*
X995830Y720092D02*
D03*
X982830D02*
D03*
D20*
X1023480Y720090D02*
D03*
X1008380D02*
D03*
D21*
X1050169Y720088D02*
D03*
X1035170D02*
D03*
D22*
X1083310Y636270D02*
D03*
Y621170D02*
D03*
Y697370D02*
D03*
Y712470D02*
D03*
D23*
X1083308Y673221D02*
D03*
Y688220D02*
D03*
X1083312Y660279D02*
D03*
Y645280D02*
D03*
D36*
X1046165Y602155D02*
X1083485D01*
X1036180Y612140D02*
X1046165Y602155D01*
X1000136Y607235D02*
X1030145D01*
X989135Y618236D02*
X1000136Y607235D01*
X1030145D02*
X1035050Y612140D01*
X1083309Y697369D02*
X1083310Y697370D01*
X1083309Y688221D02*
Y697369D01*
X1083308Y688220D02*
X1083309Y688221D01*
X1073676Y681353D02*
Y696124D01*
X1061720Y703580D02*
X1066220D01*
X1073676Y681353D02*
X1081808Y673221D01*
X1066220Y703580D02*
X1073676Y696124D01*
X1081808Y673221D02*
X1083308D01*
X1083310Y660280D02*
X1083312Y660279D01*
X1083310Y660280D02*
Y673220D01*
X1083308Y673221D02*
X1083310Y673220D01*
X1082040Y636270D02*
X1083311Y637541D01*
Y645279D02*
X1083312Y645280D01*
X1083311Y637541D02*
Y645279D01*
X1082041D02*
X1082042Y645280D01*
X976040Y632060D02*
X985040D01*
X989135Y627965D01*
Y618236D02*
Y627965D01*
X1083485Y602155D02*
X1098550Y617220D01*
X1050169Y710880D02*
Y720088D01*
Y710880D02*
X1056760Y704289D01*
Y704289D02*
X1057469Y703580D01*
X1056760Y704289D02*
Y704289D01*
X1057469Y703580D02*
X1061720D01*
X1023480Y720090D02*
X1023481Y720089D01*
X1035169D01*
X1035170Y720088D01*
X1008050Y719760D02*
X1008380Y720090D01*
X1008050Y703910D02*
Y719760D01*
X1007720Y703580D02*
X1008050Y703910D01*
X1008380Y720090D02*
Y726440D01*
X982980Y720242D02*
Y725478D01*
X986538Y729037D01*
X1005783D01*
X1008380Y726440D01*
X982830Y720092D02*
X982980Y720242D01*
X976040Y703260D02*
X978735D01*
X982830Y707355D01*
Y720092D01*
X955040Y726160D02*
X962224D01*
X967855Y720529D01*
Y712445D02*
Y720529D01*
Y712445D02*
X976040Y704260D01*
Y703260D02*
Y704260D01*
D37*
X1103630Y693420D02*
D03*
Y642620D02*
D03*
Y617220D02*
D03*
Y668020D02*
D03*
Y718820D02*
D03*
D38*
X955040Y609160D02*
D03*
Y726160D02*
D03*
D39*
X984150Y645620D02*
D03*
X984220Y689610D02*
D03*
D40*
X1036180Y612140D02*
D03*
X1054043Y702408D02*
D03*
X1025242Y667603D02*
D03*
X1029004Y659563D02*
D03*
M02*
