G04*
G04 #@! TF.GenerationSoftware,Altium Limited,Altium Designer,20.0.13 (296)*
G04*
G04 Layer_Color=16711935*
%FSLAX44Y44*%
%MOMM*%
G71*
G01*
G75*
%ADD31C,1.7032*%
%ADD32O,4.2032X1.8032*%
%ADD33C,0.2032*%
%ADD34C,1.0032*%
%ADD35C,0.8032*%
%ADD46R,3.2032X1.9032*%
%ADD47R,1.0432X1.9032*%
%ADD48R,2.5032X0.7032*%
%ADD49R,2.7032X2.2032*%
%ADD50R,1.1032X1.0032*%
D31*
X1103630Y693420D02*
D03*
Y642620D02*
D03*
Y617220D02*
D03*
Y668020D02*
D03*
Y718820D02*
D03*
D32*
X955040Y609160D02*
D03*
Y726160D02*
D03*
D33*
Y645160D02*
D03*
Y690160D02*
D03*
D34*
X984150Y645620D02*
D03*
X984220Y689610D02*
D03*
D35*
X1036180Y612140D02*
D03*
X1054043Y702408D02*
D03*
X1025242Y667603D02*
D03*
X1029004Y659563D02*
D03*
D46*
X1059180Y681610D02*
D03*
D47*
X1036180Y626110D02*
D03*
X1082180D02*
D03*
X1059180D02*
D03*
D48*
X1010250Y651620D02*
D03*
Y659620D02*
D03*
Y683620D02*
D03*
Y675620D02*
D03*
Y667620D02*
D03*
D49*
X1009250Y712120D02*
D03*
X954250D02*
D03*
X1009250Y623120D02*
D03*
X954250D02*
D03*
D50*
X1082042Y713890D02*
D03*
Y700890D02*
D03*
X1065532Y713890D02*
D03*
Y700890D02*
D03*
X1050292Y713890D02*
D03*
Y700890D02*
D03*
X1033782Y713890D02*
D03*
Y700890D02*
D03*
M02*
