G04*
G04 #@! TF.GenerationSoftware,Altium Limited,Altium Designer,20.0.13 (296)*
G04*
G04 Layer_Physical_Order=2*
G04 Layer_Color=16711680*
%FSLAX44Y44*%
%MOMM*%
G71*
G01*
G75*
%ADD36C,0.3810*%
%ADD37C,1.5000*%
%ADD38O,4.0000X1.6000*%
%ADD39C,0.8000*%
%ADD40C,0.6000*%
%ADD41R,3.0000X1.7000*%
%ADD42R,0.8400X1.7000*%
%ADD43R,2.3000X0.5000*%
%ADD44R,2.5000X2.0000*%
%ADD45R,0.9000X0.8000*%
D36*
X1061475Y617465D02*
Y623815D01*
X1065775Y613165D02*
X1088221D01*
X1059180Y626110D02*
X1061475Y623815D01*
Y617465D02*
X1065775Y613165D01*
X1065532Y673600D02*
Y700890D01*
X1088221Y613165D02*
X1090825Y615769D01*
Y629815D01*
X1103630Y642620D01*
X1082180Y626110D02*
Y655460D01*
X1009250Y712120D02*
X1011020Y713890D01*
X1033782D01*
X1009250Y684215D02*
Y712120D01*
Y684215D02*
X1009845Y683620D01*
X1010250D01*
X943655Y696375D02*
Y704025D01*
X942595Y632275D02*
Y695315D01*
X943655Y704025D02*
X951750Y712120D01*
X942595Y632275D02*
X951750Y623120D01*
X954250D01*
X951750Y712120D02*
X954250D01*
X942595Y695315D02*
X943655Y696375D01*
X954250Y623120D02*
X1009250D01*
X954250Y712120D02*
X1009250D01*
X1065532Y713890D02*
X1082042D01*
X1050292D02*
X1065532D01*
X1033782D02*
X1050292D01*
X1082042D02*
X1082542D01*
X1087097Y709335D01*
X1088383D01*
X1090987Y706731D01*
Y669594D02*
Y706731D01*
Y669594D02*
X1093651Y666931D01*
X1102541D02*
X1103630Y668020D01*
X1093651Y666931D02*
X1102541D01*
X1082180Y655460D02*
X1093651Y666931D01*
X1010250Y667620D02*
X1010258Y667612D01*
X1025233D01*
X1010527Y659342D02*
X1028783D01*
X1025233Y667612D02*
X1025242Y667603D01*
X1028783Y659342D02*
X1029004Y659563D01*
X1059572Y667640D02*
X1065532Y673600D01*
X1059180Y667640D02*
X1059572D01*
X1033782Y678722D02*
Y700890D01*
Y678722D02*
X1036449Y676055D01*
Y649099D02*
Y676055D01*
X1036320Y648970D02*
X1036449Y649099D01*
X1010250Y659620D02*
X1010527Y659342D01*
X1036180Y612140D02*
X1036320Y612280D01*
Y648970D01*
X1010250Y651620D02*
X1033670D01*
X1036320Y648970D01*
X1059180Y633730D02*
Y667640D01*
X1033782Y700890D02*
X1050292D01*
X1065532D02*
X1082042D01*
D37*
X1103630Y693420D02*
D03*
Y642620D02*
D03*
Y617220D02*
D03*
Y668020D02*
D03*
Y718820D02*
D03*
D38*
X955040Y609160D02*
D03*
Y726160D02*
D03*
D39*
X984150Y645620D02*
D03*
X984220Y689610D02*
D03*
D40*
X1036180Y612140D02*
D03*
X1054043Y702408D02*
D03*
X1025242Y667603D02*
D03*
X1029004Y659563D02*
D03*
D41*
X1059180Y681610D02*
D03*
D42*
X1036180Y626110D02*
D03*
X1082180D02*
D03*
X1059180D02*
D03*
D43*
X1010250Y651620D02*
D03*
Y659620D02*
D03*
Y683620D02*
D03*
Y675620D02*
D03*
Y667620D02*
D03*
D44*
X1009250Y712120D02*
D03*
X954250D02*
D03*
X1009250Y623120D02*
D03*
X954250D02*
D03*
D45*
X1082042Y713890D02*
D03*
Y700890D02*
D03*
X1065532Y713890D02*
D03*
Y700890D02*
D03*
X1050292Y713890D02*
D03*
Y700890D02*
D03*
X1033782Y713890D02*
D03*
Y700890D02*
D03*
M02*
