G04*
G04 #@! TF.GenerationSoftware,Altium Limited,Altium Designer,20.0.13 (296)*
G04*
G04 Layer_Color=32896*
%FSLAX44Y44*%
%MOMM*%
G71*
G01*
G75*
%ADD13C,0.2540*%
%ADD14C,0.1500*%
%ADD15C,0.1000*%
D13*
X1091680Y636610D02*
Y670610D01*
X1026680Y636610D02*
X1091680D01*
X1026680D02*
Y670610D01*
X1091680D01*
X1009650Y629120D02*
Y706120D01*
X925250Y629120D02*
X1009650D01*
X925250D02*
Y706120D01*
X1009650D01*
X931970Y679320D02*
X968970Y673220D01*
X931970Y655920D02*
X968970Y662020D01*
Y673220D01*
D14*
X1079040Y704390D02*
X1079040Y710390D01*
X1085040Y704390D02*
X1085040Y710390D01*
X1062530Y704390D02*
X1062530Y710390D01*
X1068530Y704390D02*
X1068530Y710390D01*
X1047290Y704390D02*
X1047290Y710390D01*
X1053290Y704390D02*
X1053290Y710390D01*
X1030780Y704390D02*
X1030780Y710390D01*
X1036780Y704390D02*
X1036780Y710390D01*
X1130300Y722278D02*
X1126301D01*
X1128301D01*
Y716280D01*
X1124302Y722278D02*
X1120303Y716280D01*
Y722278D02*
X1124302Y716280D01*
X1130300Y690880D02*
Y696878D01*
X1127301D01*
X1126301Y695878D01*
Y693879D01*
X1127301Y692879D01*
X1130300D01*
X1128301D02*
X1126301Y690880D01*
X1124302Y696878D02*
X1120303Y690880D01*
Y696878D02*
X1124302Y690880D01*
X1126301Y670478D02*
X1127301Y671478D01*
X1129300D01*
X1130300Y670478D01*
Y666480D01*
X1129300Y665480D01*
X1127301D01*
X1126301Y666480D01*
Y668479D01*
X1128301D01*
X1124302Y665480D02*
Y671478D01*
X1120303Y665480D01*
Y671478D01*
X1118304D02*
Y665480D01*
X1115305D01*
X1114305Y666480D01*
Y670478D01*
X1115305Y671478D01*
X1118304D01*
X1130300Y645078D02*
X1129300Y646078D01*
X1127301D01*
X1126301Y645078D01*
Y644079D01*
X1127301Y643079D01*
X1128301D01*
X1127301D01*
X1126301Y642079D01*
Y641080D01*
X1127301Y640080D01*
X1129300D01*
X1130300Y641080D01*
X1124302Y640080D02*
Y641080D01*
X1123302D01*
Y640080D01*
X1124302D01*
X1119304Y645078D02*
X1118304Y646078D01*
X1116304D01*
X1115305Y645078D01*
Y644079D01*
X1116304Y643079D01*
X1117304D01*
X1116304D01*
X1115305Y642079D01*
Y641080D01*
X1116304Y640080D01*
X1118304D01*
X1119304Y641080D01*
X1126301Y620678D02*
X1130300D01*
Y617679D01*
X1128301Y618679D01*
X1127301D01*
X1126301Y617679D01*
Y615680D01*
X1127301Y614680D01*
X1129300D01*
X1130300Y615680D01*
X1124302Y620678D02*
Y616679D01*
X1122303Y614680D01*
X1120303Y616679D01*
Y620678D01*
X975360Y654050D02*
X980438D01*
X978746Y655743D01*
X980438Y657436D01*
X975360D01*
X980438Y659128D02*
Y660821D01*
Y659975D01*
X975360D01*
Y659128D01*
Y660821D01*
Y663360D02*
X980438D01*
X975360Y666746D01*
X980438D01*
Y668439D02*
Y670132D01*
Y669285D01*
X975360D01*
Y668439D01*
Y670132D01*
X980438Y677749D02*
X975360D01*
Y680288D01*
X976206Y681135D01*
X977053D01*
X977899Y680288D01*
Y677749D01*
Y680288D01*
X978746Y681135D01*
X979592D01*
X980438Y680288D01*
Y677749D01*
X1064260Y657858D02*
Y652780D01*
X1060874D01*
X1059182D02*
Y657858D01*
X1057489Y656166D01*
X1055796Y657858D01*
Y652780D01*
X1054103D02*
X1052411D01*
X1053257D01*
Y657858D01*
X1054103Y657012D01*
X1083734Y728132D02*
X1084581Y728978D01*
X1086274D01*
X1087120Y728132D01*
Y724746D01*
X1086274Y723900D01*
X1084581D01*
X1083734Y724746D01*
X1078656Y728978D02*
X1082042D01*
Y726439D01*
X1080349Y727286D01*
X1079502D01*
X1078656Y726439D01*
Y724746D01*
X1079502Y723900D01*
X1081195D01*
X1082042Y724746D01*
X1067224Y728132D02*
X1068071Y728978D01*
X1069764D01*
X1070610Y728132D01*
Y724746D01*
X1069764Y723900D01*
X1068071D01*
X1067224Y724746D01*
X1062992Y723900D02*
Y728978D01*
X1065532Y726439D01*
X1062146D01*
X1035474Y728132D02*
X1036321Y728978D01*
X1038014D01*
X1038860Y728132D01*
Y724746D01*
X1038014Y723900D01*
X1036321D01*
X1035474Y724746D01*
X1033782Y728132D02*
X1032935Y728978D01*
X1031243D01*
X1030396Y728132D01*
Y727286D01*
X1031243Y726439D01*
X1032089D01*
X1031243D01*
X1030396Y725593D01*
Y724746D01*
X1031243Y723900D01*
X1032935D01*
X1033782Y724746D01*
X1050714Y728132D02*
X1051561Y728978D01*
X1053254D01*
X1054100Y728132D01*
Y724746D01*
X1053254Y723900D01*
X1051561D01*
X1050714Y724746D01*
X1045636Y723900D02*
X1049022D01*
X1045636Y727286D01*
Y728132D01*
X1046482Y728978D01*
X1048175D01*
X1049022Y728132D01*
D15*
X1086034Y645110D02*
G03*
X1086034Y645110I-3354J0D01*
G01*
M02*
