G04*
G04 #@! TF.GenerationSoftware,Altium Limited,Altium Designer,20.0.13 (296)*
G04*
G04 Layer_Color=65535*
%FSLAX44Y44*%
%MOMM*%
G71*
G01*
G75*
%ADD10C,0.6000*%
%ADD11C,0.2500*%
%ADD12C,0.2000*%
%ADD13C,0.2540*%
%ADD14C,0.1500*%
%ADD15C,0.1000*%
%ADD16C,0.3000*%
D10*
X1032220Y701630D02*
G03*
X1032220Y701630I-3000J0D01*
G01*
D11*
X1008970Y712080D02*
G03*
X1008970Y712080I-1250J0D01*
G01*
D12*
X1019220Y606630D02*
X1050220D01*
X1019220Y711630D02*
X1050220D01*
Y606630D02*
Y711630D01*
X1019220Y606630D02*
Y711630D01*
D13*
X965040Y605660D02*
Y607660D01*
X945040Y605660D02*
X965040D01*
X945040D02*
Y607560D01*
Y727760D02*
Y729660D01*
X965040D01*
Y727660D02*
Y729660D01*
X825140Y685460D02*
Y709960D01*
Y685460D02*
X845140D01*
Y709960D01*
X825140D02*
X845140D01*
X825140Y649960D02*
X845140D01*
Y625460D02*
Y649960D01*
X825140Y625460D02*
X845140D01*
X825140D02*
Y649960D01*
X775040Y607660D02*
X965040D01*
Y727660D01*
X775040Y607660D02*
Y727660D01*
X965040D01*
D14*
X986330Y717090D02*
X992330Y717090D01*
X986330Y723090D02*
X992330Y723090D01*
X1039670Y717090D02*
X1045670Y717090D01*
X1039670Y723090D02*
X1045670Y723090D01*
X1080310Y683720D02*
X1080310Y677720D01*
X1086310Y683720D02*
X1086310Y677720D01*
X1086310Y655780D02*
X1086310Y649780D01*
X1080310Y655780D02*
X1080310Y649780D01*
X1116519Y620678D02*
X1112520D01*
Y617679D01*
X1114519Y618679D01*
X1115519D01*
X1116519Y617679D01*
Y615680D01*
X1115519Y614680D01*
X1113520D01*
X1112520Y615680D01*
X1118518Y620678D02*
Y616679D01*
X1120517Y614680D01*
X1122517Y616679D01*
Y620678D01*
X1112520Y645078D02*
X1113520Y646078D01*
X1115519D01*
X1116519Y645078D01*
Y644079D01*
X1115519Y643079D01*
X1114519D01*
X1115519D01*
X1116519Y642079D01*
Y641080D01*
X1115519Y640080D01*
X1113520D01*
X1112520Y641080D01*
X1118518Y640080D02*
Y641080D01*
X1119518D01*
Y640080D01*
X1118518D01*
X1123516Y645078D02*
X1124516Y646078D01*
X1126516D01*
X1127515Y645078D01*
Y644079D01*
X1126516Y643079D01*
X1125516D01*
X1126516D01*
X1127515Y642079D01*
Y641080D01*
X1126516Y640080D01*
X1124516D01*
X1123516Y641080D01*
X1116519Y670478D02*
X1115519Y671478D01*
X1113520D01*
X1112520Y670478D01*
Y666480D01*
X1113520Y665480D01*
X1115519D01*
X1116519Y666480D01*
Y668479D01*
X1114519D01*
X1118518Y665480D02*
Y671478D01*
X1122517Y665480D01*
Y671478D01*
X1124516D02*
Y665480D01*
X1127515D01*
X1128515Y666480D01*
Y670478D01*
X1127515Y671478D01*
X1124516D01*
X1112520Y690880D02*
Y696878D01*
X1115519D01*
X1116519Y695878D01*
Y693879D01*
X1115519Y692879D01*
X1112520D01*
X1114519D02*
X1116519Y690880D01*
X1118518Y696878D02*
X1122517Y690880D01*
Y696878D02*
X1118518Y690880D01*
X1112520Y722278D02*
X1116519D01*
X1114519D01*
Y716280D01*
X1118518Y722278D02*
X1122517Y716280D01*
Y722278D02*
X1118518Y716280D01*
X1037590Y728980D02*
Y734058D01*
X1040129D01*
X1040976Y733212D01*
Y731519D01*
X1040129Y730673D01*
X1037590D01*
X1039283D02*
X1040976Y728980D01*
X1042668Y733212D02*
X1043515Y734058D01*
X1045208D01*
X1046054Y733212D01*
Y732366D01*
X1045208Y731519D01*
X1044361D01*
X1045208D01*
X1046054Y730673D01*
Y729826D01*
X1045208Y728980D01*
X1043515D01*
X1042668Y729826D01*
X1010920Y734058D02*
Y728980D01*
X1013459D01*
X1014306Y729826D01*
Y733212D01*
X1013459Y734058D01*
X1010920D01*
X1015998Y733212D02*
X1016845Y734058D01*
X1018538D01*
X1019384Y733212D01*
Y732366D01*
X1018538Y731519D01*
X1017691D01*
X1018538D01*
X1019384Y730673D01*
Y729826D01*
X1018538Y728980D01*
X1016845D01*
X1015998Y729826D01*
X937262Y654050D02*
Y657436D01*
Y655743D01*
X942340D01*
X938954Y659128D02*
X941494D01*
X942340Y659975D01*
Y662514D01*
X943186D01*
X944033Y661667D01*
Y660821D01*
X942340Y662514D02*
X938954D01*
X944033Y664207D02*
X938954D01*
Y666746D01*
X939801Y667592D01*
X941494D01*
X942340Y666746D01*
Y664207D01*
Y671824D02*
Y670132D01*
X941494Y669285D01*
X939801D01*
X938954Y670132D01*
Y671824D01*
X939801Y672671D01*
X940647D01*
Y669285D01*
X942340Y679442D02*
X938954D01*
X937262Y681134D01*
X938954Y682827D01*
X942340D01*
X939801D01*
Y679442D01*
X1029970Y685798D02*
Y681566D01*
X1030816Y680720D01*
X1032509D01*
X1033356Y681566D01*
Y685798D01*
X1035048Y680720D02*
X1036741D01*
X1035895D01*
Y685798D01*
X1035048Y684952D01*
X1076960Y648970D02*
X1071882D01*
Y651509D01*
X1072728Y652356D01*
X1074421D01*
X1075267Y651509D01*
Y648970D01*
Y650663D02*
X1076960Y652356D01*
Y657434D02*
Y654048D01*
X1073574Y657434D01*
X1072728D01*
X1071882Y656588D01*
Y654895D01*
X1072728Y654048D01*
X1076960Y678180D02*
X1071882D01*
Y680719D01*
X1072728Y681566D01*
X1074421D01*
X1075267Y680719D01*
Y678180D01*
Y679873D02*
X1076960Y681566D01*
Y683258D02*
Y684951D01*
Y684105D01*
X1071882D01*
X1072728Y683258D01*
X1071882Y619760D02*
X1076960D01*
Y622299D01*
X1076114Y623146D01*
X1072728D01*
X1071882Y622299D01*
Y619760D01*
X1076960Y628224D02*
Y624838D01*
X1073574Y628224D01*
X1072728D01*
X1071882Y627378D01*
Y625685D01*
X1072728Y624838D01*
X1071882Y695960D02*
X1076960D01*
Y698499D01*
X1076114Y699346D01*
X1072728D01*
X1071882Y698499D01*
Y695960D01*
X1076960Y701038D02*
Y702731D01*
Y701885D01*
X1071882D01*
X1072728Y701038D01*
X988906Y733212D02*
X988059Y734058D01*
X986366D01*
X985520Y733212D01*
Y729826D01*
X986366Y728980D01*
X988059D01*
X988906Y729826D01*
X990598Y728980D02*
X992291D01*
X991445D01*
Y734058D01*
X990598Y733212D01*
D15*
X1018280Y717840D02*
Y722290D01*
X1013830Y720065D02*
X1018280D01*
X1013830Y724090D02*
X1018280D01*
X1013805Y716090D02*
X1018255D01*
X1081110Y631070D02*
X1085560D01*
X1083335Y626620D02*
Y631070D01*
X1079310Y626620D02*
Y631070D01*
X1087310Y626595D02*
Y631045D01*
X1081060Y702570D02*
X1085510D01*
X1083285D02*
Y707020D01*
X1087310Y702570D02*
Y707020D01*
X1079310Y702595D02*
Y707045D01*
D16*
X1090930Y612140D02*
Y603143D01*
X1086432D01*
X1084932Y604642D01*
Y607641D01*
X1086432Y609141D01*
X1090930D01*
X1087931D02*
X1084932Y612140D01*
X1081933Y603143D02*
X1075935Y612140D01*
Y603143D02*
X1081933Y612140D01*
X1075690Y731627D02*
X1081688D01*
X1078689D01*
Y722630D01*
X1084687Y731627D02*
X1090685Y722630D01*
Y731627D02*
X1084687Y722630D01*
M02*
